<svg width="31" height="51" viewBox="0 0 31 51" fill="none" xmlns="http://www.w3.org/2000/svg">
<mask id="path-1-outside-1_201_12" maskUnits="userSpaceOnUse" x="-1" y="10" width="33" height="37" fill="black">
<rect fill="white" x="-1" y="10" width="33" height="37"/>
<path d="M4.6875 46H1.34659L14.0455 11.0909H17.4545L30.1534 46H26.8125L15.8693 15.233H15.6307L4.6875 46ZM7.09091 32.6193H24.4091V35.483H7.09091V32.6193Z"/>
</mask>
<path d="M4.6875 46H1.34659L14.0455 11.0909H17.4545L30.1534 46H26.8125L15.8693 15.233H15.6307L4.6875 46ZM7.09091 32.6193H24.4091V35.483H7.09091V32.6193Z" fill="white"/>
<path d="M4.6875 46V47H5.39319L5.62968 46.3351L4.6875 46ZM1.34659 46L0.406838 45.6581L-0.0812877 47H1.34659V46ZM14.0455 11.0909V10.0909H13.3451L13.1057 10.7491L14.0455 11.0909ZM17.4545 11.0909L18.3943 10.7491L18.1549 10.0909H17.4545V11.0909ZM30.1534 46V47H31.5813L31.0932 45.6581L30.1534 46ZM26.8125 46L25.8703 46.3351L26.1068 47H26.8125V46ZM15.8693 15.233L16.8115 14.8978L16.575 14.233H15.8693V15.233ZM15.6307 15.233V14.233H14.925L14.6885 14.8978L15.6307 15.233ZM7.09091 32.6193V31.6193H6.09091V32.6193H7.09091ZM24.4091 32.6193H25.4091V31.6193H24.4091V32.6193ZM24.4091 35.483V36.483H25.4091V35.483H24.4091ZM7.09091 35.483H6.09091V36.483H7.09091V35.483ZM4.6875 45H1.34659V47H4.6875V45ZM2.28634 46.3419L14.9852 11.4328L13.1057 10.7491L0.406838 45.6581L2.28634 46.3419ZM14.0455 12.0909H17.4545V10.0909H14.0455V12.0909ZM16.5148 11.4328L29.2137 46.3419L31.0932 45.6581L18.3943 10.7491L16.5148 11.4328ZM30.1534 45H26.8125V47H30.1534V45ZM27.7547 45.6649L16.8115 14.8978L14.9271 15.5681L25.8703 46.3351L27.7547 45.6649ZM15.8693 14.233H15.6307V16.233H15.8693V14.233ZM14.6885 14.8978L3.74532 45.6649L5.62968 46.3351L16.5729 15.5681L14.6885 14.8978ZM7.09091 33.6193H24.4091V31.6193H7.09091V33.6193ZM23.4091 32.6193V35.483H25.4091V32.6193H23.4091ZM24.4091 34.483H7.09091V36.483H24.4091V34.483ZM8.09091 35.483V32.6193H6.09091V35.483H8.09091Z" fill="white" mask="url(#path-1-outside-1_201_12)"/>
<path d="M16 49C16 41.7033 15 33.7787 15 26C15 22.3193 14.7117 17.3604 17 14.5C19.8107 10.9867 23.4721 11.7639 27 10" stroke="white" stroke-width="3" stroke-linecap="round"/>
</svg>
