<svg width="118" height="117" viewBox="0 0 118 117" fill="none" xmlns="http://www.w3.org/2000/svg">
<path d="M56 0L104.497 48.75L56 14L7.50258 48.75L56 0Z" fill="#D9D9D9"/>
<path d="M56.1279 116.599L5 64.229L56.0927 100.914L107.02 64L56.1279 116.599Z" fill="#D9D9D9"/>
<path d="M2.42045 56.2273V54.8636L13.3977 49.2727V51.4545L4.97727 55.5114L5.04545 55.375V55.7159L4.97727 55.5795L13.3977 59.6364V61.8182L2.42045 56.2273ZM18.6499 64H16.4339L22.843 46.5455H25.0249L31.4339 64H29.218L24.0021 49.3068H23.8658L18.6499 64ZM19.468 57.1818H28.3999V59.0568H19.468V57.1818ZM34.1527 64V46.5455H36.2663V55.2045H36.4709L44.3118 46.5455H47.0732L39.7436 54.4205L47.0732 64H44.5163L38.4482 55.8864L36.2663 58.3409V64H34.1527ZM50.5249 64H48.3089L54.718 46.5455H56.8999L63.3089 64H61.093L55.8771 49.3068H55.7408L50.5249 64ZM51.343 57.1818H60.2749V59.0568H51.343V57.1818ZM66.0277 64V46.5455H71.9254C73.2891 46.5455 74.4084 46.7784 75.2834 47.2443C76.1584 47.7045 76.8061 48.3381 77.2266 49.1449C77.647 49.9517 77.8572 50.8693 77.8572 51.8977C77.8572 52.9261 77.647 53.8381 77.2266 54.6335C76.8061 55.429 76.1612 56.054 75.2919 56.5085C74.4226 56.9574 73.3118 57.1818 71.9595 57.1818H67.1868V55.2727H71.8913C72.8232 55.2727 73.5732 55.1364 74.1413 54.8636C74.7152 54.5909 75.13 54.2045 75.3857 53.7045C75.647 53.1989 75.7777 52.5966 75.7777 51.8977C75.7777 51.1989 75.647 50.5881 75.3857 50.0653C75.1243 49.5426 74.7067 49.1392 74.1328 48.8551C73.5589 48.5653 72.8004 48.4205 71.8572 48.4205H68.1413V64H66.0277ZM74.2436 56.1591L78.5391 64H76.0845L71.8572 56.1591H74.2436ZM81.3793 64V46.5455H91.9134V48.4205H83.4929V54.3182H91.3679V56.1932H83.4929V62.125H92.0497V64H81.3793ZM101.621 45.7273L95.9957 66.625H94.1548L99.7798 45.7273H101.621ZM115.562 57.8636L104.585 63.4545V61.2727L113.005 57.2159L112.937 57.3523V57.0114L113.005 57.1477L104.585 53.0909V50.9091L115.562 56.5V57.8636Z" fill="#F2F0F0"/>
</svg>
